<svg xmlns="http://www.w3.org/2000/svg" xmlns:xlink="http://www.w3.org/1999/xlink" width="764" zoomAndPan="magnify" viewBox="0 0 573 165.750002" height="221" preserveAspectRatio="xMidYMid meet" version="1.0"><defs><g/><clipPath id="c215179942"><path d="M 0.847656 10.605469 L 144.808594 10.605469 L 144.808594 154.566406 L 0.847656 154.566406 Z M 0.847656 10.605469 " clip-rule="nonzero"/></clipPath><clipPath id="0df5641405"><path d="M 23.3125 10.605469 L 122.339844 10.605469 C 128.300781 10.605469 134.011719 12.972656 138.226562 17.1875 C 142.441406 21.398438 144.808594 27.113281 144.808594 33.070312 L 144.808594 132.101562 C 144.808594 138.058594 142.441406 143.773438 138.226562 147.984375 C 134.011719 152.199219 128.300781 154.566406 122.339844 154.566406 L 23.3125 154.566406 C 17.355469 154.566406 11.640625 152.199219 7.425781 147.984375 C 3.214844 143.773438 0.847656 138.058594 0.847656 132.101562 L 0.847656 33.070312 C 0.847656 27.113281 3.214844 21.398438 7.425781 17.1875 C 11.640625 12.972656 17.355469 10.605469 23.3125 10.605469 Z M 23.3125 10.605469 " clip-rule="nonzero"/></clipPath><linearGradient x1="0" gradientTransform="matrix(0.562345, 0, 0, 0.562345, 0.846535, 10.605715)" y1="0.0000156206" x2="0" gradientUnits="userSpaceOnUse" y2="256.00001" id="9ef20f0b1a"><stop stop-opacity="1" stop-color="rgb(10.598755%, 19.198608%, 66.299438%)" offset="0"/><stop stop-opacity="1" stop-color="rgb(10.745239%, 19.213867%, 66.401672%)" offset="0.0078125"/><stop stop-opacity="1" stop-color="rgb(11.039734%, 19.244385%, 66.60614%)" offset="0.015625"/><stop stop-opacity="1" stop-color="rgb(11.332703%, 19.274902%, 66.810608%)" offset="0.0234375"/><stop stop-opacity="1" stop-color="rgb(11.627197%, 19.30542%, 67.015076%)" offset="0.03125"/><stop stop-opacity="1" stop-color="rgb(11.920166%, 19.335938%, 67.219543%)" offset="0.0390625"/><stop stop-opacity="1" stop-color="rgb(12.214661%, 19.366455%, 67.425537%)" offset="0.046875"/><stop stop-opacity="1" stop-color="rgb(12.507629%, 19.396973%, 67.630005%)" offset="0.0546875"/><stop stop-opacity="1" stop-color="rgb(12.802124%, 19.42749%, 67.834473%)" offset="0.0625"/><stop stop-opacity="1" stop-color="rgb(13.095093%, 19.458008%, 68.03894%)" offset="0.0703125"/><stop stop-opacity="1" stop-color="rgb(13.389587%, 19.488525%, 68.243408%)" offset="0.078125"/><stop stop-opacity="1" stop-color="rgb(13.682556%, 19.519043%, 68.447876%)" offset="0.0859375"/><stop stop-opacity="1" stop-color="rgb(13.977051%, 19.549561%, 68.652344%)" offset="0.09375"/><stop stop-opacity="1" stop-color="rgb(14.27002%, 19.580078%, 68.858337%)" offset="0.101562"/><stop stop-opacity="1" stop-color="rgb(14.564514%, 19.610596%, 69.062805%)" offset="0.109375"/><stop stop-opacity="1" stop-color="rgb(14.857483%, 19.641113%, 69.267273%)" offset="0.117188"/><stop stop-opacity="1" stop-color="rgb(15.151978%, 19.671631%, 69.471741%)" offset="0.125"/><stop stop-opacity="1" stop-color="rgb(15.446472%, 19.702148%, 69.676208%)" offset="0.132812"/><stop stop-opacity="1" stop-color="rgb(15.739441%, 19.732666%, 69.880676%)" offset="0.140625"/><stop stop-opacity="1" stop-color="rgb(16.033936%, 19.763184%, 70.085144%)" offset="0.148438"/><stop stop-opacity="1" stop-color="rgb(16.326904%, 19.793701%, 70.291138%)" offset="0.15625"/><stop stop-opacity="1" stop-color="rgb(16.621399%, 19.824219%, 70.495605%)" offset="0.164063"/><stop stop-opacity="1" stop-color="rgb(16.914368%, 19.854736%, 70.700073%)" offset="0.171875"/><stop stop-opacity="1" stop-color="rgb(17.208862%, 19.885254%, 70.904541%)" offset="0.179688"/><stop stop-opacity="1" stop-color="rgb(17.501831%, 19.915771%, 71.109009%)" offset="0.1875"/><stop stop-opacity="1" stop-color="rgb(17.796326%, 19.946289%, 71.313477%)" offset="0.195313"/><stop stop-opacity="1" stop-color="rgb(18.089294%, 19.976807%, 71.517944%)" offset="0.203125"/><stop stop-opacity="1" stop-color="rgb(18.383789%, 20.007324%, 71.723938%)" offset="0.210938"/><stop stop-opacity="1" stop-color="rgb(18.676758%, 20.037842%, 71.928406%)" offset="0.21875"/><stop stop-opacity="1" stop-color="rgb(18.971252%, 20.066833%, 72.132874%)" offset="0.226563"/><stop stop-opacity="1" stop-color="rgb(19.264221%, 20.097351%, 72.337341%)" offset="0.234375"/><stop stop-opacity="1" stop-color="rgb(19.558716%, 20.127869%, 72.541809%)" offset="0.242188"/><stop stop-opacity="1" stop-color="rgb(19.851685%, 20.158386%, 72.746277%)" offset="0.25"/><stop stop-opacity="1" stop-color="rgb(20.146179%, 20.188904%, 72.950745%)" offset="0.257812"/><stop stop-opacity="1" stop-color="rgb(20.439148%, 20.219421%, 73.156738%)" offset="0.265625"/><stop stop-opacity="1" stop-color="rgb(20.733643%, 20.249939%, 73.361206%)" offset="0.273438"/><stop stop-opacity="1" stop-color="rgb(21.026611%, 20.280457%, 73.565674%)" offset="0.28125"/><stop stop-opacity="1" stop-color="rgb(21.321106%, 20.310974%, 73.770142%)" offset="0.289062"/><stop stop-opacity="1" stop-color="rgb(21.614075%, 20.341492%, 73.974609%)" offset="0.296875"/><stop stop-opacity="1" stop-color="rgb(21.908569%, 20.372009%, 74.179077%)" offset="0.304688"/><stop stop-opacity="1" stop-color="rgb(22.201538%, 20.402527%, 74.383545%)" offset="0.3125"/><stop stop-opacity="1" stop-color="rgb(22.496033%, 20.433044%, 74.589539%)" offset="0.320313"/><stop stop-opacity="1" stop-color="rgb(22.789001%, 20.463562%, 74.794006%)" offset="0.328125"/><stop stop-opacity="1" stop-color="rgb(23.083496%, 20.49408%, 74.998474%)" offset="0.335938"/><stop stop-opacity="1" stop-color="rgb(23.376465%, 20.524597%, 75.202942%)" offset="0.34375"/><stop stop-opacity="1" stop-color="rgb(23.670959%, 20.555115%, 75.40741%)" offset="0.351562"/><stop stop-opacity="1" stop-color="rgb(23.963928%, 20.585632%, 75.611877%)" offset="0.359375"/><stop stop-opacity="1" stop-color="rgb(24.258423%, 20.61615%, 75.816345%)" offset="0.367188"/><stop stop-opacity="1" stop-color="rgb(24.551392%, 20.646667%, 76.022339%)" offset="0.375"/><stop stop-opacity="1" stop-color="rgb(24.845886%, 20.677185%, 76.226807%)" offset="0.382813"/><stop stop-opacity="1" stop-color="rgb(25.138855%, 20.707703%, 76.431274%)" offset="0.390625"/><stop stop-opacity="1" stop-color="rgb(25.43335%, 20.73822%, 76.635742%)" offset="0.398438"/><stop stop-opacity="1" stop-color="rgb(25.726318%, 20.768738%, 76.84021%)" offset="0.40625"/><stop stop-opacity="1" stop-color="rgb(26.020813%, 20.799255%, 77.044678%)" offset="0.414062"/><stop stop-opacity="1" stop-color="rgb(26.313782%, 20.829773%, 77.250671%)" offset="0.421875"/><stop stop-opacity="1" stop-color="rgb(26.608276%, 20.860291%, 77.455139%)" offset="0.429688"/><stop stop-opacity="1" stop-color="rgb(26.901245%, 20.890808%, 77.659607%)" offset="0.4375"/><stop stop-opacity="1" stop-color="rgb(27.19574%, 20.921326%, 77.864075%)" offset="0.445312"/><stop stop-opacity="1" stop-color="rgb(27.490234%, 20.951843%, 78.068542%)" offset="0.453125"/><stop stop-opacity="1" stop-color="rgb(27.783203%, 20.982361%, 78.27301%)" offset="0.460938"/><stop stop-opacity="1" stop-color="rgb(28.077698%, 21.011353%, 78.477478%)" offset="0.46875"/><stop stop-opacity="1" stop-color="rgb(28.370667%, 21.04187%, 78.683472%)" offset="0.476562"/><stop stop-opacity="1" stop-color="rgb(28.665161%, 21.072388%, 78.887939%)" offset="0.484375"/><stop stop-opacity="1" stop-color="rgb(28.95813%, 21.102905%, 79.092407%)" offset="0.492188"/><stop stop-opacity="1" stop-color="rgb(29.252625%, 21.133423%, 79.296875%)" offset="0.5"/><stop stop-opacity="1" stop-color="rgb(29.545593%, 21.16394%, 79.501343%)" offset="0.507812"/><stop stop-opacity="1" stop-color="rgb(29.840088%, 21.194458%, 79.705811%)" offset="0.515625"/><stop stop-opacity="1" stop-color="rgb(30.133057%, 21.224976%, 79.910278%)" offset="0.523437"/><stop stop-opacity="1" stop-color="rgb(30.427551%, 21.255493%, 80.116272%)" offset="0.53125"/><stop stop-opacity="1" stop-color="rgb(30.72052%, 21.286011%, 80.32074%)" offset="0.539062"/><stop stop-opacity="1" stop-color="rgb(31.015015%, 21.316528%, 80.525208%)" offset="0.546875"/><stop stop-opacity="1" stop-color="rgb(31.307983%, 21.347046%, 80.729675%)" offset="0.554688"/><stop stop-opacity="1" stop-color="rgb(31.602478%, 21.377563%, 80.934143%)" offset="0.5625"/><stop stop-opacity="1" stop-color="rgb(31.895447%, 21.408081%, 81.138611%)" offset="0.570312"/><stop stop-opacity="1" stop-color="rgb(32.189941%, 21.438599%, 81.343079%)" offset="0.578125"/><stop stop-opacity="1" stop-color="rgb(32.48291%, 21.469116%, 81.549072%)" offset="0.585938"/><stop stop-opacity="1" stop-color="rgb(32.777405%, 21.499634%, 81.75354%)" offset="0.59375"/><stop stop-opacity="1" stop-color="rgb(33.070374%, 21.530151%, 81.958008%)" offset="0.601562"/><stop stop-opacity="1" stop-color="rgb(33.364868%, 21.560669%, 82.162476%)" offset="0.609375"/><stop stop-opacity="1" stop-color="rgb(33.657837%, 21.591187%, 82.366943%)" offset="0.617188"/><stop stop-opacity="1" stop-color="rgb(33.952332%, 21.621704%, 82.571411%)" offset="0.625"/><stop stop-opacity="1" stop-color="rgb(34.2453%, 21.652222%, 82.775879%)" offset="0.632813"/><stop stop-opacity="1" stop-color="rgb(34.539795%, 21.682739%, 82.981873%)" offset="0.640625"/><stop stop-opacity="1" stop-color="rgb(34.832764%, 21.713257%, 83.18634%)" offset="0.648438"/><stop stop-opacity="1" stop-color="rgb(35.127258%, 21.743774%, 83.390808%)" offset="0.65625"/><stop stop-opacity="1" stop-color="rgb(35.420227%, 21.774292%, 83.595276%)" offset="0.664063"/><stop stop-opacity="1" stop-color="rgb(35.714722%, 21.80481%, 83.799744%)" offset="0.671875"/><stop stop-opacity="1" stop-color="rgb(36.00769%, 21.835327%, 84.004211%)" offset="0.679688"/><stop stop-opacity="1" stop-color="rgb(36.302185%, 21.865845%, 84.208679%)" offset="0.6875"/><stop stop-opacity="1" stop-color="rgb(36.595154%, 21.896362%, 84.414673%)" offset="0.695312"/><stop stop-opacity="1" stop-color="rgb(36.889648%, 21.92688%, 84.619141%)" offset="0.703125"/><stop stop-opacity="1" stop-color="rgb(37.182617%, 21.957397%, 84.823608%)" offset="0.710938"/><stop stop-opacity="1" stop-color="rgb(37.477112%, 21.986389%, 85.028076%)" offset="0.71875"/><stop stop-opacity="1" stop-color="rgb(37.770081%, 22.016907%, 85.232544%)" offset="0.726562"/><stop stop-opacity="1" stop-color="rgb(38.064575%, 22.047424%, 85.437012%)" offset="0.734375"/><stop stop-opacity="1" stop-color="rgb(38.357544%, 22.077942%, 85.641479%)" offset="0.742188"/><stop stop-opacity="1" stop-color="rgb(38.652039%, 22.108459%, 85.847473%)" offset="0.75"/><stop stop-opacity="1" stop-color="rgb(38.945007%, 22.138977%, 86.051941%)" offset="0.757813"/><stop stop-opacity="1" stop-color="rgb(39.239502%, 22.169495%, 86.256409%)" offset="0.765625"/><stop stop-opacity="1" stop-color="rgb(39.532471%, 22.200012%, 86.460876%)" offset="0.773438"/><stop stop-opacity="1" stop-color="rgb(39.826965%, 22.23053%, 86.665344%)" offset="0.78125"/><stop stop-opacity="1" stop-color="rgb(40.12146%, 22.261047%, 86.869812%)" offset="0.789063"/><stop stop-opacity="1" stop-color="rgb(40.414429%, 22.291565%, 87.07428%)" offset="0.796875"/><stop stop-opacity="1" stop-color="rgb(40.708923%, 22.322083%, 87.280273%)" offset="0.804688"/><stop stop-opacity="1" stop-color="rgb(41.001892%, 22.3526%, 87.484741%)" offset="0.8125"/><stop stop-opacity="1" stop-color="rgb(41.296387%, 22.383118%, 87.689209%)" offset="0.820312"/><stop stop-opacity="1" stop-color="rgb(41.589355%, 22.413635%, 87.893677%)" offset="0.828125"/><stop stop-opacity="1" stop-color="rgb(41.88385%, 22.444153%, 88.098145%)" offset="0.835938"/><stop stop-opacity="1" stop-color="rgb(42.176819%, 22.47467%, 88.302612%)" offset="0.84375"/><stop stop-opacity="1" stop-color="rgb(42.471313%, 22.505188%, 88.50708%)" offset="0.851562"/><stop stop-opacity="1" stop-color="rgb(42.764282%, 22.535706%, 88.713074%)" offset="0.859375"/><stop stop-opacity="1" stop-color="rgb(43.058777%, 22.566223%, 88.917542%)" offset="0.867188"/><stop stop-opacity="1" stop-color="rgb(43.351746%, 22.596741%, 89.122009%)" offset="0.875"/><stop stop-opacity="1" stop-color="rgb(43.64624%, 22.627258%, 89.326477%)" offset="0.882812"/><stop stop-opacity="1" stop-color="rgb(43.939209%, 22.657776%, 89.530945%)" offset="0.890625"/><stop stop-opacity="1" stop-color="rgb(44.233704%, 22.688293%, 89.735413%)" offset="0.898438"/><stop stop-opacity="1" stop-color="rgb(44.526672%, 22.718811%, 89.93988%)" offset="0.90625"/><stop stop-opacity="1" stop-color="rgb(44.821167%, 22.749329%, 90.145874%)" offset="0.914063"/><stop stop-opacity="1" stop-color="rgb(45.114136%, 22.779846%, 90.350342%)" offset="0.921875"/><stop stop-opacity="1" stop-color="rgb(45.40863%, 22.810364%, 90.55481%)" offset="0.929688"/><stop stop-opacity="1" stop-color="rgb(45.701599%, 22.840881%, 90.759277%)" offset="0.9375"/><stop stop-opacity="1" stop-color="rgb(45.996094%, 22.871399%, 90.963745%)" offset="0.945312"/><stop stop-opacity="1" stop-color="rgb(46.289062%, 22.901917%, 91.168213%)" offset="0.953125"/><stop stop-opacity="1" stop-color="rgb(46.583557%, 22.930908%, 91.372681%)" offset="0.960937"/><stop stop-opacity="1" stop-color="rgb(46.876526%, 22.961426%, 91.578674%)" offset="0.96875"/><stop stop-opacity="1" stop-color="rgb(47.171021%, 22.991943%, 91.783142%)" offset="0.976562"/><stop stop-opacity="1" stop-color="rgb(47.463989%, 23.022461%, 91.98761%)" offset="0.984375"/><stop stop-opacity="1" stop-color="rgb(47.758484%, 23.052979%, 92.192078%)" offset="0.992188"/><stop stop-opacity="1" stop-color="rgb(48.051453%, 23.083496%, 92.396545%)" offset="1"/></linearGradient><clipPath id="73082025d4"><path d="M 23.886719 33.570312 L 121.988281 33.570312 L 121.988281 131.671875 L 23.886719 131.671875 Z M 23.886719 33.570312 " clip-rule="nonzero"/></clipPath></defs><g clip-path="url(#c215179942)"><g clip-path="url(#0df5641405)"><path fill="url(#9ef20f0b1a)" d="M 0.847656 10.605469 L 0.847656 154.566406 L 144.808594 154.566406 L 144.808594 10.605469 Z M 0.847656 10.605469 " fill-rule="nonzero"/></g></g><g clip-path="url(#73082025d4)"><path fill="#ffffff" d="M 72.820312 64.707031 C 62.988281 64.707031 55.027344 72.671875 55.027344 82.503906 C 55.027344 92.332031 62.988281 100.296875 72.820312 100.296875 C 82.652344 100.296875 90.617188 92.332031 90.617188 82.503906 C 90.617188 72.671875 82.652344 64.707031 72.820312 64.707031 Z M 112.589844 78.054688 C 110.546875 59.503906 95.820312 44.777344 77.269531 42.734375 L 77.269531 33.570312 L 68.371094 33.570312 L 68.371094 42.734375 C 49.824219 44.777344 35.097656 59.503906 33.050781 78.054688 L 23.886719 78.054688 L 23.886719 86.953125 L 33.050781 86.953125 C 35.097656 105.5 49.824219 120.226562 68.371094 122.273438 L 68.371094 131.4375 L 77.269531 131.4375 L 77.269531 122.273438 C 95.820312 120.226562 110.546875 105.5 112.589844 86.953125 L 121.753906 86.953125 L 121.753906 78.054688 Z M 72.820312 113.640625 C 55.628906 113.640625 41.679688 99.695312 41.679688 82.503906 C 41.679688 65.308594 55.628906 51.363281 72.820312 51.363281 C 90.015625 51.363281 103.960938 65.308594 103.960938 82.503906 C 103.960938 99.695312 90.015625 113.640625 72.820312 113.640625 Z M 72.820312 113.640625 " fill-opacity="1" fill-rule="nonzero"/></g><g fill="#1a2558" fill-opacity="1"><g transform="translate(173.626751, 117.033974)"><g><path d="M 51.28125 0 L 37.8125 0 L 37.8125 -28.84375 C 37.8125 -32.40625 37.210938 -35.078125 36.015625 -36.859375 C 34.828125 -38.640625 32.953125 -39.53125 30.390625 -39.53125 C 26.941406 -39.53125 24.4375 -38.265625 22.875 -35.734375 C 21.320312 -33.203125 20.546875 -29.035156 20.546875 -23.234375 L 20.546875 0 L 7.0625 0 L 7.0625 -49.390625 L 17.359375 -49.390625 L 19.171875 -43.0625 L 19.921875 -43.0625 C 21.242188 -45.332031 23.15625 -47.109375 25.65625 -48.390625 C 28.164062 -49.671875 31.039062 -50.3125 34.28125 -50.3125 C 41.664062 -50.3125 46.671875 -47.894531 49.296875 -43.0625 L 50.484375 -43.0625 C 51.816406 -45.363281 53.769531 -47.144531 56.34375 -48.40625 C 58.914062 -49.675781 61.820312 -50.3125 65.0625 -50.3125 C 70.664062 -50.3125 74.898438 -48.875 77.765625 -46 C 80.640625 -43.132812 82.078125 -38.535156 82.078125 -32.203125 L 82.078125 0 L 68.5625 0 L 68.5625 -28.84375 C 68.5625 -32.40625 67.960938 -35.078125 66.765625 -36.859375 C 65.578125 -38.640625 63.703125 -39.53125 61.140625 -39.53125 C 57.835938 -39.53125 55.367188 -38.351562 53.734375 -36 C 52.097656 -33.644531 51.28125 -29.90625 51.28125 -24.78125 Z M 51.28125 0 "/></g></g></g><g fill="#1a2558" fill-opacity="1"><g transform="translate(262.453659, 117.033974)"><g><path d="M 27.515625 -40.734375 C 24.660156 -40.734375 22.421875 -39.828125 20.796875 -38.015625 C 19.179688 -36.203125 18.253906 -33.628906 18.015625 -30.296875 L 36.921875 -30.296875 C 36.867188 -33.628906 36.003906 -36.203125 34.328125 -38.015625 C 32.648438 -39.828125 30.378906 -40.734375 27.515625 -40.734375 Z M 29.421875 0.890625 C 21.472656 0.890625 15.257812 -1.300781 10.78125 -5.6875 C 6.300781 -10.082031 4.0625 -16.300781 4.0625 -24.34375 C 4.0625 -32.613281 6.128906 -39.007812 10.265625 -43.53125 C 14.410156 -48.050781 20.132812 -50.3125 27.4375 -50.3125 C 34.414062 -50.3125 39.847656 -48.320312 43.734375 -44.34375 C 47.617188 -40.375 49.5625 -34.882812 49.5625 -27.875 L 49.5625 -21.34375 L 17.71875 -21.34375 C 17.863281 -17.507812 18.992188 -14.515625 21.109375 -12.359375 C 23.234375 -10.210938 26.207031 -9.140625 30.03125 -9.140625 C 33.007812 -9.140625 35.820312 -9.445312 38.46875 -10.0625 C 41.125 -10.6875 43.894531 -11.675781 46.78125 -13.03125 L 46.78125 -2.609375 C 44.425781 -1.429688 41.90625 -0.554688 39.21875 0.015625 C 36.539062 0.597656 33.273438 0.890625 29.421875 0.890625 Z M 29.421875 0.890625 "/></g></g></g><g fill="#1a2558" fill-opacity="1"><g transform="translate(315.89998, 117.033974)"><g><path d="M 22.703125 0.890625 C 16.898438 0.890625 12.34375 -1.363281 9.03125 -5.875 C 5.71875 -10.382812 4.0625 -16.628906 4.0625 -24.609375 C 4.0625 -32.703125 5.75 -39.007812 9.125 -43.53125 C 12.5 -48.050781 17.144531 -50.3125 23.0625 -50.3125 C 29.269531 -50.3125 34.007812 -47.894531 37.28125 -43.0625 L 37.71875 -43.0625 C 37.039062 -46.75 36.703125 -50.035156 36.703125 -52.921875 L 36.703125 -68.734375 L 50.21875 -68.734375 L 50.21875 0 L 39.890625 0 L 37.28125 -6.40625 L 36.703125 -6.40625 C 33.640625 -1.539062 28.972656 0.890625 22.703125 0.890625 Z M 27.4375 -9.84375 C 30.875 -9.84375 33.394531 -10.84375 35 -12.84375 C 36.613281 -14.851562 37.492188 -18.257812 37.640625 -23.0625 L 37.640625 -24.515625 C 37.640625 -29.816406 36.820312 -33.613281 35.1875 -35.90625 C 33.550781 -38.207031 30.894531 -39.359375 27.21875 -39.359375 C 24.207031 -39.359375 21.867188 -38.082031 20.203125 -35.53125 C 18.546875 -32.988281 17.71875 -29.285156 17.71875 -24.421875 C 17.71875 -19.566406 18.554688 -15.921875 20.234375 -13.484375 C 21.910156 -11.054688 24.3125 -9.84375 27.4375 -9.84375 Z M 27.4375 -9.84375 "/></g></g></g><g fill="#1a2558" fill-opacity="1"><g transform="translate(373.144965, 117.033974)"><g><path d="M 6.5 -62.15625 C 6.5 -66.539062 8.941406 -68.734375 13.828125 -68.734375 C 18.710938 -68.734375 21.15625 -66.539062 21.15625 -62.15625 C 21.15625 -60.0625 20.546875 -58.429688 19.328125 -57.265625 C 18.109375 -56.109375 16.273438 -55.53125 13.828125 -55.53125 C 8.941406 -55.53125 6.5 -57.738281 6.5 -62.15625 Z M 20.546875 0 L 7.0625 0 L 7.0625 -49.390625 L 20.546875 -49.390625 Z M 20.546875 0 "/></g></g></g><g fill="#1a2558" fill-opacity="1"><g transform="translate(400.751541, 117.033974)"><g><path d="M 38.4375 0 L 35.828125 -6.71875 L 35.46875 -6.71875 C 33.207031 -3.851562 30.875 -1.867188 28.46875 -0.765625 C 26.070312 0.335938 22.941406 0.890625 19.078125 0.890625 C 14.335938 0.890625 10.601562 -0.460938 7.875 -3.171875 C 5.15625 -5.890625 3.796875 -9.75 3.796875 -14.75 C 3.796875 -20 5.628906 -23.863281 9.296875 -26.34375 C 12.960938 -28.832031 18.492188 -30.210938 25.890625 -30.484375 L 34.453125 -30.75 L 34.453125 -32.90625 C 34.453125 -37.914062 31.890625 -40.421875 26.765625 -40.421875 C 22.816406 -40.421875 18.179688 -39.226562 12.859375 -36.84375 L 8.390625 -45.9375 C 14.078125 -48.914062 20.378906 -50.40625 27.296875 -50.40625 C 33.921875 -50.40625 39 -48.960938 42.53125 -46.078125 C 46.070312 -43.191406 47.84375 -38.800781 47.84375 -32.90625 L 47.84375 0 Z M 34.453125 -22.875 L 29.25 -22.703125 C 25.332031 -22.585938 22.414062 -21.878906 20.5 -20.578125 C 18.582031 -19.285156 17.625 -17.316406 17.625 -14.671875 C 17.625 -10.867188 19.800781 -8.96875 24.15625 -8.96875 C 27.28125 -8.96875 29.773438 -9.863281 31.640625 -11.65625 C 33.515625 -13.457031 34.453125 -15.84375 34.453125 -18.8125 Z M 34.453125 -22.875 "/></g></g></g><g fill="#1a2558" fill-opacity="1"><g transform="translate(455.390472, 117.033974)"><g><path d="M 52.65625 0 L 39.1875 0 L 39.1875 -28.84375 C 39.1875 -32.40625 38.550781 -35.078125 37.28125 -36.859375 C 36.019531 -38.640625 34.003906 -39.53125 31.234375 -39.53125 C 27.460938 -39.53125 24.738281 -38.269531 23.0625 -35.75 C 21.382812 -33.238281 20.546875 -29.066406 20.546875 -23.234375 L 20.546875 0 L 7.0625 0 L 7.0625 -49.390625 L 17.359375 -49.390625 L 19.171875 -43.0625 L 19.921875 -43.0625 C 21.421875 -45.445312 23.488281 -47.25 26.125 -48.46875 C 28.757812 -49.695312 31.757812 -50.3125 35.125 -50.3125 C 40.863281 -50.3125 45.21875 -48.757812 48.1875 -45.65625 C 51.164062 -42.550781 52.65625 -38.066406 52.65625 -32.203125 Z M 52.65625 0 "/></g></g></g></svg>